<svg xmlns="http://www.w3.org/2000/svg" xmlns:xlink="http://www.w3.org/1999/xlink" width="547" height="256" viewBox="0 0 547 256">
  <defs>
    <polygon id="sc-logo-a" points="0 15 389.278 15 405.465 0 546.917 0 546.917 256 0 256"/>
  </defs>
  <g fill="none" fill-rule="evenodd">
    <mask id="sc-logo-b" fill="#fff">
      <use xlink:href="#sc-logo-a"/>
    </mask>
    <use fill="#0D2E42" fill-opacity=".5" xlink:href="#sc-logo-a"/>
    <g fill="#88898A" mask="url(#sc-logo-b)" fill-opacity=".1">
      <path d="M337.419394,111.565258 C337.617241,115.018636 337.643211,117.973845 337.981498,120.892862 C338.92392,129.025065 339.889578,137.156927 341.03839,145.261474 C343.59605,163.30447 347.229056,181.111527 352.919467,198.465145 C358.320112,214.935102 368.226135,227.77413 383.266956,236.546885 C392.783436,242.098103 402.91225,246.198862 413.721058,248.261192 C423.436409,250.114557 433.24163,251.573211 443.057101,252.810951 C455.020529,254.319798 467.035554,255.420276 479.030077,256.679868 C479.787637,256.759425 480.560915,256.690111 481.634893,256.690111 C481.721344,255.353694 481.896639,254.249119 481.847092,253.154786 C481.396725,243.242628 480.131392,233.437684 477.539902,223.847167 C467.298325,185.947417 445.466462,156.366301 412.838092,134.755542 C392.116428,121.031147 369.209561,113.374577 344.384705,111.585403 C342.266477,111.432777 340.127405,111.565258 337.419394,111.565258 L337.419394,111.565258 Z M180.545879,256.631199 C183.140027,256.631199 185.526179,256.848388 187.861015,256.596025 C203.606877,254.891977 219.358212,253.222762 235.074995,251.276937 C248.861305,249.570157 262.077333,245.746465 274.491136,239.423047 C290.252734,231.393874 301.866021,219.502762 307.946174,202.721135 C310.229353,196.419573 312.224825,189.989268 313.927118,183.506715 C319.810905,161.102071 322.781022,138.211825 324.933176,115.199325 C325.034438,114.11372 324.946176,113.010358 324.946176,111.920996 C250.458914,111.064191 180.346434,179.564525 180.545879,256.631199 L180.545879,256.631199 Z M324.981818,413.871494 C324.871693,411.630295 324.895976,409.819478 324.676068,408.039108 C323.628856,399.560116 322.528976,391.087966 321.422256,382.616501 C319.414359,367.244222 317.011108,351.945156 312.606799,337.039181 C310.24835,329.058309 307.774646,321.105148 303.785529,313.747611 C296.664352,300.612426 285.705908,291.639761 272.465623,285.229884 C260.557779,279.464552 247.812714,276.48062 234.872365,274.251053 C217.567722,271.269858 200.065401,269.98453 182.604121,268.36256 C181.869158,268.294479 181.105466,268.534644 180.155725,268.657122 C180.155725,269.639678 180.127339,270.42107 180.159829,271.200409 C180.632477,282.523066 182.479632,293.630874 185.617847,304.50707 C195.48975,338.720337 215.020145,366.186401 243.846169,386.962737 C265.284254,402.414044 289.187151,411.576241 315.602399,413.837967 C318.507711,414.086685 321.453036,413.871494 324.981818,413.871494 L324.981818,413.871494 Z M481.855667,268.393654 C480.302765,268.393654 478.969507,268.284764 477.659514,268.413452 C472.898514,268.880757 468.140593,269.389023 463.389857,269.952247 C449.930007,271.548046 436.433551,272.902513 423.028783,274.874478 C409.873767,276.809236 397.291124,280.829968 385.573371,287.250715 C371.497014,294.964487 360.920587,305.91355 355.083606,320.98336 C352.788295,326.909836 350.915508,333.019957 349.197018,339.143049 C344.671057,355.267282 341.887877,371.74242 339.776971,388.332593 C338.944925,394.872129 338.257597,401.432487 337.648616,407.9966 C337.477212,409.841924 337.021503,411.836077 338.217569,413.555785 C412.511544,413.860267 481.947356,345.7372 481.855667,268.393654 L481.855667,268.393654 Z M560.989276,262.805243 C558.179144,263.713842 558.221851,265.402946 558.119696,267.000166 C557.843636,271.314983 557.638984,275.635265 557.318509,279.947008 C556.099475,296.346181 553.139698,312.430419 548.482224,328.202113 C538.390006,362.375995 520.717436,392.148641 496.258184,417.959662 C463.424225,452.608338 423.873966,475.275131 376.919307,484.704399 C363.611411,487.376908 350.174709,488.920842 336.615694,489.461902 C333.519253,489.585553 333.31665,489.783327 333.270868,492.833621 C333.214836,496.589615 333.231919,500.34766 333.275651,504.104338 C333.286926,505.089108 333.514811,506.071487 333.690765,507.419355 C366.135917,507.352405 396.967763,500.935174 426.507461,488.253056 C473.148136,468.229054 510.291078,436.965761 537.659201,394.161903 C591.987509,309.192257 588.274035,200.652684 529.789465,119.799739 C500.115496,78.7768713 461.505819,49.4991722 413.816256,32.2890922 C387.482329,22.7853598 360.386848,17.8167621 331.802424,18.0589411 C332.094883,24.269859 332.272886,29.9793399 332.901536,35.7103403 C334.082304,35.881471 334.854791,36.0348396 335.634454,36.0993979 C343.910762,36.7839208 352.215428,37.2218242 360.459963,38.1792681 C375.424215,39.9172184 390.044418,43.3162638 404.340388,48.0881124 C438.152853,59.3748834 467.233363,78.1804756 492.254301,103.420378 C527.837235,139.31479 549.274869,182.220437 555.877057,232.381891 C556.989151,240.830146 557.364974,249.375752 558.072889,257.876952 C558.222876,259.678777 558.044531,261.606304 560.989276,262.805243 L560.989276,262.805243 Z M329.692388,18.073658 C328.398147,18.073658 327.273849,18.0148663 326.157758,18.084596 C322.864537,18.2913923 319.56858,18.4845161 316.284591,18.7993249 C308.688401,19.5277264 301.045023,19.9809692 293.515511,21.1527009 C259.646042,26.4231008 227.980032,37.7856167 199.180503,56.518284 C161.038156,81.3276858 132.314196,114.681021 111.382357,154.848038 C96.9760961,182.492429 89.0663471,212.035244 86.8300615,243.097755 C85.9201599,255.730787 86.1400272,268.353222 87.2092726,280.986253 C88.6443935,297.944232 91.4373569,314.644143 96.0374717,331.026511 C118.895456,412.423922 183.428709,475.904913 265.274711,499.059261 C279.675501,503.133319 294.33685,505.824063 309.239265,507.102098 C314.907942,507.588155 320.613889,507.692408 326.30616,507.815802 C328.768125,507.869124 329.041335,507.4986 329.076213,505.018412 C329.135711,500.803528 329.1022,496.587276 329.062194,492.37205 C329.056039,491.730469 328.803687,491.091622 328.619724,490.24051 C327.047485,490.073022 325.601764,489.890495 324.150572,489.769151 C316.887773,489.16141 309.594883,488.80695 302.365252,487.929519 C278.299194,485.009077 255.34615,478.131818 233.467823,467.754747 C199.192813,451.497824 171.171539,427.613366 148.507776,397.357531 C129.515419,372.002597 116.772011,343.779177 110.00947,312.812714 C107.008949,299.07187 105.751636,285.147815 104.760353,271.173171 C104.552454,268.244526 104.716585,265.216413 102.098695,262.939603 C104.461156,261.189867 104.371226,258.814273 104.577074,256.559339 C105.394993,247.600445 105.814553,238.587545 107.059214,229.689153 C110.267634,206.747754 116.975807,184.809915 127.044563,163.927592 C142.427062,132.024564 164.638781,105.666754 192.423091,83.9035813 C223.697238,59.4065958 258.968659,44.1576769 298.402513,38.887277 C307.873558,37.6212051 317.447528,37.1262613 326.973968,36.2741239 C329.814803,36.0201575 330.104084,35.7942198 330.152981,32.9964882 C330.222737,29.0099343 330.199827,25.0209878 330.157768,21.0337503 C330.148536,20.1624714 329.892081,19.293927 329.692388,18.073658 L329.692388,18.073658 Z M551.957595,264.40642 C549.449801,264.40642 547.295472,264.238432 545.174676,264.434418 C534.168643,265.451906 523.169795,266.546218 512.171632,267.648041 C508.090862,268.056743 504.018647,268.55183 499.944379,269.020625 C497.087908,269.349431 497.003049,269.440595 496.714596,272.346582 C496.636238,273.13872 496.598257,273.935297 496.558565,274.730508 C496.160959,282.701741 495.045813,290.581468 493.242555,298.346813 C483.642515,339.683455 461.265349,372.584166 426.932273,397.37741 C405.501561,412.85347 381.584952,422.500826 355.330268,426.131005 C350.145644,426.847685 344.897376,427.108203 339.677851,427.575633 C336.845675,427.829663 336.687933,427.930729 336.249265,430.765696 C335.953627,432.67434 335.690837,434.596982 335.578604,436.523039 C335.001698,446.399842 334.406315,456.276304 333.967648,466.159594 C333.760974,470.815114 333.77295,475.488729 333.904345,480.147663 C334.014868,484.057139 334.311533,484.234004 338.074765,484.136694 C340.124046,484.083771 342.168537,483.864909 344.217476,483.774769 C362.197704,482.98263 379.75432,479.7673 396.917436,474.439146 C428.11209,464.755598 455.746421,448.810059 479.821456,426.821053 C508.393344,400.724536 529.056902,369.405711 541.494935,332.742343 C547.302315,315.623621 550.737744,298.032689 551.907296,280.018031 C552.236467,274.945956 551.957595,269.834957 551.957595,264.40642 L551.957595,264.40642 Z M110.391624,264.458914 C110.391624,265.710287 110.418298,266.833514 110.38752,267.955034 C110.097517,278.463552 110.982572,288.897577 112.77833,299.230452 C119.819438,339.746957 136.534932,375.83206 163.324931,407.049729 C196.545598,445.760595 238.606208,469.653533 288.38232,480.211259 C300.679038,482.819253 313.130675,484.086002 325.720815,483.677991 C328.835263,483.577184 329.078072,483.356776 328.976161,480.329494 C328.838683,476.234684 328.575698,472.144317 328.393078,468.050874 C327.844878,455.769863 327.324036,443.488168 326.760789,431.20784 C326.596294,427.623216 326.416411,427.52856 322.718196,427.323529 C308.328194,426.525617 294.253843,424.022873 280.439399,419.868263 C229.52072,404.554844 174.390165,355.351862 166.766316,280.574346 C166.388766,276.871145 165.969151,273.172046 165.588181,269.644147 C159.461538,267.812195 115.061757,263.576256 110.391624,264.458914 L110.391624,264.458914 Z M329.796364,41.5955193 C328.131838,41.477285 326.911916,41.2640532 325.706357,41.3269292 C320.246973,41.6119217 314.782459,41.8668431 309.336755,42.3302123 C292.111121,43.7954976 275.346848,47.4850233 259.047014,53.205377 C196.436979,75.1781647 145.943747,124.964378 123.121244,187.225679 C114.814348,209.886686 110.417223,233.256416 110.752385,257.446268 C110.770854,258.774866 110.907655,260.101756 111.020173,261.932679 C129.425032,260.146862 147.471472,258.263998 165.733373,256.279302 C165.999451,254.363633 166.320591,252.703226 166.447816,251.027785 C167.462195,237.694986 169.861342,224.623602 173.93972,211.885393 C185.794549,174.855841 208.652962,146.129687 240.691404,124.57072 C265.193823,108.082842 292.559486,99.9403937 321.910131,98.0691478 C323.348251,97.9775674 324.777821,97.7551092 326.411224,97.5709234 C328.170484,78.8509462 329.435893,60.4118609 329.796364,41.5955193 L329.796364,41.5955193 Z M332.739666,41.8564236 C332.681167,43.0350593 332.570669,43.8118174 332.615142,44.5793488 C333.386576,57.8761635 334.173748,71.1716113 334.965367,84.4670591 C335.175074,87.9886133 335.385807,91.5105093 335.641356,95.0289879 C335.844221,97.8243604 336.054954,98.0297417 338.903618,98.3277325 C341.622627,98.6117123 344.344372,98.8796306 347.070222,99.0877458 C358.131331,99.9325087 368.96426,101.973677 379.605613,105.099847 C398.331808,110.6014 415.074509,119.953937 430.682807,131.446404 C456.92288,150.76728 475.739389,175.649855 486.607897,206.434493 C491.907705,221.447147 494.763211,236.970691 496.426158,252.751218 C496.797336,256.274822 496.98857,256.489772 500.518354,256.971273 C506.837962,257.833465 513.150727,258.801593 519.497361,259.394841 C528.796657,260.264209 538.120584,260.876593 547.440064,261.511874 C548.969933,261.616444 550.53025,261.278129 552.431298,261.113414 C552.431298,259.176816 552.526402,257.600403 552.414877,256.038344 C551.928411,249.230005 551.502839,242.414149 550.833008,235.622897 C549.272007,219.795553 545.646093,204.395374 540.172156,189.495492 C519.339653,132.791463 481.731265,90.9063261 427.772565,63.7922379 C399.763495,49.7176399 369.902982,42.6171203 338.566992,41.7292991 C336.672102,41.6756471 334.771738,41.8075559 332.739666,41.8564236 L332.739666,41.8564236 Z M189.304556,37.9877808 C188.320009,38.8687384 187.427764,39.8883811 186.337585,40.6105 C156.33764,60.4865302 131.036511,85.10518 111.01843,115.056032 C94.2876391,140.088687 82.0085015,167.10734 74.866439,196.394143 C71.5172725,210.128406 69.4179328,224.059082 68.1851988,238.145181 C66.911784,252.698233 66.6068482,267.250942 67.7411275,281.806385 C72.3961851,341.534903 92.4494776,394.912259 133.580264,439.386444 C158.502616,466.334729 188.18019,486.784629 221.463665,502.099082 C248.431685,514.507638 276.70252,522.623106 305.94115,527.513633 C312.004998,528.527811 318.062692,529.577855 324.129617,530.571537 C325.798901,530.844808 327.491774,530.974953 329.573679,531.21714 C330.070396,524.532246 329.848531,518.150683 329.744607,511.544696 C326.718495,511.304901 324.129959,511.047685 321.535269,510.902509 C298.572779,509.615744 276.072137,505.767746 254.133165,498.79865 C211.707085,485.321945 176.118473,461.40936 146.563626,428.325797 C125.803374,405.086483 109.273937,379.227865 98.2531726,349.985811 C91.5999646,332.333182 87.215999,314.135378 84.88659,295.413235 C82.6703354,277.602109 82.3616391,259.747943 83.8688837,241.903684 C89.5112225,175.113158 118.369025,120.041179 168.449268,75.8313844 C199.746557,48.2029952 235.815135,29.8391788 276.600989,20.8318225 C292.762247,17.2625607 309.142293,15.279979 325.693268,14.7658878 C326.830624,14.7307041 327.967638,14.6476981 329.101917,14.5496621 C329.429415,14.5213102 329.745632,14.3621298 330.36576,14.1711816 C330.658047,13.0080716 330.982469,11.7165242 331.406712,10.0280505 C331.507902,10.693124 331.563283,11.0241236 331.608066,11.3571727 C332.011114,14.3330947 332.012482,14.3095251 334.882366,14.5298499 C342.488669,15.1143084 350.115142,15.5211407 357.694781,16.352568 C402.115251,21.2249913 442.806752,35.9959762 478.541336,63.1037839 C516.656608,92.0175719 545.331517,128.375264 563.110098,172.986426 C570.009442,190.29849 574.481949,208.259915 577.044162,226.716985 C579.464163,244.149972 580.022414,261.655375 578.894972,279.185715 C575.08806,338.390236 552.86774,389.641543 512.003943,432.752788 C487.793678,458.294069 459.802139,478.448495 427.208873,492.01128 C406.902265,500.461163 385.814857,506.062537 363.988698,508.706093 C355.067957,509.786539 346.068931,510.219673 337.106141,510.954772 C335.874091,511.055883 334.645459,511.200716 332.95327,511.372194 C332.811742,517.744534 332.825758,523.936857 332.978568,530.625849 C334.480343,530.625849 335.799224,530.771025 337.077083,530.604329 C364.485757,527.032335 391.383355,521.249577 417.383922,511.723006 C455.831136,497.635882 490.55451,477.426461 519.903559,448.62164 C553.398301,415.747812 575.761175,376.480125 587.022264,330.900559 C592.370949,309.251682 595.285958,287.27693 595.413812,265.010803 C595.839081,190.911984 570.395398,127.222743 517.971046,74.5473519 C504.908373,61.422142 490.486138,49.9498806 475.000046,39.8036671 C474.187454,39.2711301 473.411782,38.6829141 472.878828,37.7114354 C473.423405,38.0140831 473.978922,38.2986266 474.511192,38.6217697 C513.688611,62.410017 545.653888,93.4027146 569.023529,133.00311 C584.642944,159.470097 595.300316,187.757752 600.012805,218.152669 C602.861152,236.522293 603.821426,255.032992 603.277875,273.636263 C602.529551,299.270798 598.563676,324.360498 591.127617,348.900583 C573.062219,408.518767 537.570695,455.053416 485.606481,489.232796 C454.559431,509.654002 420.736507,523.708334 384.913724,533.191865 C380.291142,534.415778 375.635743,535.516035 371.003248,536.702715 C370.390983,536.859504 369.822818,537.189137 369.156882,538.125432 C370.586867,538.623127 371.993606,539.205536 373.450939,539.603146 C379.712722,541.311432 385.991255,542.958232 392.258507,544.64568 C393.466969,544.970873 394.679534,545.310412 395.84458,545.760285 C398.092627,546.62792 398.761982,547.632192 398.261846,549.952263 C397.834184,551.937578 397.232859,553.931432 396.379243,555.768838 C395.102068,558.517945 393.852241,559.015982 390.863733,558.206074 C385.039869,556.627592 379.291896,554.735532 373.418463,553.379424 C361.106507,550.537063 348.736435,547.945087 336.381748,545.2906 C335.18696,545.033725 333.932005,545.057295 332.239816,544.910412 C331.28467,551.384545 332.272635,557.73639 331.384492,563.97756 C331.039559,557.759618 330.694284,551.541334 330.325763,544.899823 C328.703996,545.048072 327.394003,545.085988 326.113067,545.297432 C311.595796,547.694702 297.458669,551.724426 283.21796,555.308718 C279.353616,556.281563 275.507049,557.329216 271.628347,558.239892 C268.575911,558.956545 267.466246,558.479004 266.101897,555.710085 C265.305372,554.094028 264.707123,552.338261 264.305784,550.580445 C263.656941,547.740134 264.283905,546.56336 267.091571,545.653026 C270.770629,544.460198 274.524895,543.494184 278.258308,542.472492 C282.102141,541.42074 285.967169,540.445504 289.806899,539.379405 C290.956562,539.06002 292.052553,538.547978 293.173158,538.124066 C293.171791,537.8648 293.170082,537.605193 293.168714,537.345927 C292.147931,537.029957 291.139455,536.666507 290.104656,536.405874 C275.634561,532.759413 261.265997,528.780586 247.183226,523.805686 C212.279352,511.475012 180.150327,494.216236 151.650106,470.43687 C111.251918,436.729907 84.0695533,394.522164 69.9990885,343.87137 C64.3140177,323.405758 60.9658768,302.554491 59.6028956,281.357195 C58.4156286,262.890561 58.8870484,244.472432 61.3060239,226.15268 C66.9210141,183.626577 82.6891375,145.159915 108.264093,110.711705 C129.572341,82.0114098 155.567438,58.4373387 186.062048,39.7982017 C187.12488,39.1484997 188.272833,38.6385075 189.381132,38.0632719 L189.304556,37.9877808 Z M487.071515,564.281835 C481.873777,565.915019 477.184822,565.781579 472.580779,565.118494 C453.652741,562.392747 437.651747,553.723593 424.021081,540.489001 C422.415298,538.929911 421.010837,537.030189 419.975124,535.046081 C418.449459,532.123432 419.398548,530.474811 422.719677,530.098846 C424.967431,529.844314 427.308313,529.776394 429.538263,530.101933 C448.284838,532.839687 465.050376,539.837236 478.621125,553.49033 C481.746068,556.634579 484.322511,560.224429 487.071515,564.281835 Z M175.730909,564.220276 C177.149073,562.053904 178.20748,560.199734 179.492274,558.51629 C184.593833,551.833526 190.95659,546.561455 198.236519,542.381072 C208.591473,536.434942 219.536331,532.085874 231.493772,530.62961 C233.633841,530.368761 235.825548,530.178311 237.962198,530.347336 C239.696687,530.484392 241.384326,531.208443 243.134545,531.683888 C242.934491,534.360055 241.952002,536.253674 240.585818,537.910592 C239.072244,539.745376 237.508057,541.577439 235.738345,543.158517 C222.619905,554.875969 207.509811,562.601788 189.960079,565.159603 C185.471679,565.813596 180.891971,565.854067 175.730909,564.220276 Z M520.979615,543.805661 C518.461911,544.367046 515.970834,545.152508 513.422404,545.452301 C500.822273,546.935231 488.709297,544.901147 477.083475,539.953726 C469.523533,536.736503 462.523802,532.482799 455.702614,527.935782 C453.779941,526.654077 452.164855,525.103617 451.372503,522.83045 C450.589369,520.583203 450.818437,519.775231 453.02241,518.827765 C454.150001,518.343118 455.411755,517.961472 456.626398,517.919521 C477.78297,517.191358 497.26369,521.992464 513.937894,535.662845 C516.546065,537.800953 518.771887,540.404607 521.174545,542.793394 C521.109683,543.130703 521.044478,543.468352 520.979615,543.805661 Z M140.825455,543.854954 C142.421538,541.89237 143.507449,540.337803 144.809859,538.99288 C150.675825,532.935773 157.75166,528.639803 165.397428,525.255813 C178.350156,519.52239 191.952724,517.516443 206.028927,518.481687 C208.059716,518.620994 210.488673,518.708061 211.256323,520.929455 C212.02329,523.147776 210.221635,524.931447 208.656626,526.089604 C204.006333,529.530614 199.334185,533.017377 194.32602,535.884772 C179.434018,544.411156 163.388834,547.531898 146.345159,545.155832 C144.710146,544.927752 143.116453,544.403986 140.825455,543.854954 Z M111.938182,518.980708 C113.145133,516.2961 115.242946,514.897452 117.257722,513.479564 C123.750383,508.910164 130.861555,505.628099 138.548866,503.719258 C151.031861,500.619281 163.636508,499.418526 176.367592,502.033734 C178.442851,502.460097 180.466169,503.341338 182.383213,504.280985 C183.826292,504.988039 184.246607,506.449216 183.083395,507.709065 C181.558303,509.361607 179.983662,511.113096 178.091222,512.252353 C168.506004,518.021478 158.066147,521.426195 147.020422,522.957459 C138.406711,524.151687 129.801543,524.380501 121.264377,522.332173 C118.081606,521.568431 114.992125,520.531555 111.938182,518.980708 Z M550.864242,518.620215 C546.051235,521.609119 541.242685,522.628478 536.40431,523.217311 C521.757548,525.000674 507.520439,523.076212 493.757433,517.778779 C489.159366,516.009183 484.822175,513.698246 481.238473,510.207577 C477.320534,506.391692 477.78538,504.415264 483.029638,503.052103 C490.265261,501.171348 497.662002,500.735315 505.092339,501.140031 C517.18382,501.799069 528.771717,504.423179 539.479629,510.362099 C543.480185,512.580805 547.096796,515.280283 550.864242,518.620215 Z M84.2545455,491.085326 C87.3338205,488.293549 90.4994111,486.549196 93.8071485,485.051376 C100.512364,482.015098 107.650528,480.471561 114.92022,479.777003 C126.478633,478.672687 137.905518,479.64053 149.071059,482.962961 C152.254803,483.910486 155.310444,485.089642 157.275152,488.188569 C156.40857,490.484911 154.727814,492.042332 152.563073,492.81681 C135.359893,498.970301 117.865226,502.265303 99.6574286,497.588636 C94.3438809,496.223564 89.3570994,494.083675 84.2545455,491.085326 Z M578.146667,490.870776 C569.420571,496.392628 560.289863,498.841815 550.640257,499.584907 C537.114774,500.626523 524.179491,497.735818 511.521569,493.408402 C509.583119,492.745956 507.927146,491.144564 506.281749,489.80578 C505.227917,488.948496 505.286596,487.665282 506.404224,486.898133 C508.248174,485.6322 510.111229,484.107388 512.200129,483.535414 C517.662041,482.039404 523.194914,480.463426 528.800112,479.890097 C540.406932,478.703115 551.97179,479.312024 563.190715,482.980382 C568.498766,484.715957 573.424722,487.171243 578.146667,490.870776 Z M59.7806061,460.134003 C64.8029976,456.594928 69.9536771,455.225329 75.2528287,454.361998 C91.8057498,451.66636 107.72031,454.009394 123.013613,460.754147 C125.078196,461.664813 127.060673,462.884864 128.856706,464.256864 C132.130275,466.756649 131.971198,468.499433 128.363396,470.272743 C126.537258,471.170717 124.581464,471.926003 122.600355,472.366073 C105.552071,476.153137 88.839046,475.050734 72.6463577,468.366691 C69.2051591,466.946328 66.0550889,464.792631 62.8407036,462.860511 C61.8140571,462.243454 61.0118292,461.250812 59.7806061,460.134003 Z M602.620606,460.154244 C588.182526,474.776674 548.029399,479.454653 530.915608,468.493279 C530.498717,467.193349 531.318112,466.095372 532.184096,465.360096 C533.805074,463.98456 535.524709,462.565773 537.45159,461.731052 C548.285289,457.038088 559.535536,453.780599 571.414032,453.323223 C581.9247,452.918633 592.065406,454.7117 601.578549,459.387635 C601.953991,459.572221 602.264005,459.887923 602.620606,460.154244 Z M622.28,426.581257 C620.484418,428.375863 618.999221,430.067382 617.306986,431.516767 C608.242838,439.282206 597.5987,443.593028 585.971047,445.743473 C578.429396,447.138403 570.811432,447.409991 563.186623,447.176418 C560.619697,447.09799 558.022314,446.386997 555.538202,445.636276 C552.462066,444.706095 552.064758,443.278287 554.249435,441.011055 C556.053573,439.139391 557.99083,437.272521 560.188169,435.924169 C575.244778,426.684344 591.53061,422.059466 609.292057,423.416722 C613.592284,423.745163 617.822014,424.533899 622.28,426.581257 Z M40.5224242,426.791052 C45.4430784,424.498166 50.2956988,423.858062 55.1623363,423.660897 C69.2644737,423.089801 82.7700336,425.731463 95.5600422,431.719481 C99.9066828,433.754353 103.942898,436.298114 107.139118,439.949734 C110.28474,443.543904 109.759957,445.214362 105.152463,446.49865 C104.606484,446.650603 104.054008,446.837569 103.494695,446.879042 C87.4872702,448.060328 71.8972784,446.658761 57.3076225,439.316428 C51.4929566,436.389897 46.0793139,432.874252 41.5542129,428.138908 C41.2530181,427.823445 41.0188315,427.444754 40.5224242,426.791052 Z M25.2763636,391.122443 C29.7380508,389.565424 33.9039128,389.298147 38.1105192,389.597089 C56.1582509,390.879681 71.8506802,397.838088 85.5661482,409.374602 C87.2712516,410.809047 88.7243558,412.662285 89.9021782,414.561828 C91.3289183,416.862457 90.797871,418.001706 88.1388685,418.834522 C86.639884,419.304045 84.9957261,419.641121 83.4416168,419.56213 C65.174413,418.634319 48.5195248,413.282301 34.2421943,401.548649 C30.7960366,398.716188 27.7066495,395.576955 25.2763636,391.122443 Z M637.124848,391.673087 C634.258143,394.698463 631.624702,397.991644 628.485171,400.702996 C614.533597,412.750125 597.99462,418.256432 579.770269,419.158064 C577.77251,419.256961 575.689494,418.834183 573.736751,418.315227 C571.721599,417.779278 571.166059,416.442974 572.325224,414.695107 C573.687983,412.639673 575.202501,410.550933 577.081241,408.990665 C588.811681,399.248762 601.946146,392.247779 617.269006,390.292602 C622.7388,389.594882 628.357626,390.016301 633.908245,390.021059 C634.859039,390.021738 635.809492,390.496514 636.759945,390.752084 L637.124848,391.673087 Z M647.957576,353.042085 C647.045095,354.881429 646.367155,356.527768 645.455702,358.033274 C642.483378,362.942283 638.670476,367.162134 634.245032,370.794446 C623.037785,379.993892 610.368516,386.163229 596.021858,388.756861 C592.00489,389.483187 589.750909,389.07433 586.572121,386.947866 C588.182059,384.414932 589.495483,381.584307 591.482738,379.347701 C603.300131,366.048434 617.630012,356.811478 635.367057,353.469356 C638.809831,352.820436 642.380659,352.831348 645.89602,352.589581 C646.408927,352.554117 646.942035,352.808842 647.957576,353.042085 Z M74.4380041,388.267619 C70.8499811,390.280807 67.1602844,389.380143 63.6917366,388.574936 C46.6930456,384.628909 31.9777352,376.639336 20.4814097,363.213503 C17.3291804,359.532215 15.784903,356.743693 14.8448485,353.199067 C17.9731143,352.302524 21.1226049,352.521251 24.2296459,353.020514 C39.7792289,355.52026 53.145051,362.512681 64.664313,373.146216 C67.3410377,375.617462 69.8322164,378.31087 72.2309643,381.058187 C73.983382,383.065538 75.0857037,385.432399 74.4380041,388.267619 Z M8.82666667,315.281907 C13.9264929,315.44621 18.3127209,316.562023 22.6066614,318.172801 C38.8317596,324.258497 51.167404,335.080827 60.5371555,349.443027 C61.7605648,351.31758 62.5012661,353.560184 63.1781553,355.72218 C63.7919185,357.682829 63.0803786,358.675159 61.057945,358.599011 C58.6838583,358.509485 56.180432,358.394576 53.9837157,357.598792 C37.0848161,351.476394 22.9850744,341.603175 13.2276469,326.214001 C11.5946047,323.638677 10.5132288,320.706278 9.26374562,317.900108 C8.95909404,317.215459 8.99751857,316.37817 8.82666667,315.281907 Z M653.574545,315.445581 C652.436468,320.143874 650.467864,323.96096 648.054372,327.544514 C641.574898,337.165072 633.054898,344.657553 623.039267,350.377036 C618.412294,353.019292 613.444891,355.122445 608.485708,357.107808 C606.341067,357.966481 603.833734,358.130705 601.47915,358.19933 C599.505409,358.25703 598.872154,357.368312 599.033807,355.35188 C599.121483,354.254553 599.394101,353.053435 599.961599,352.130232 C609.64776,336.376731 622.332377,324.022416 640.130981,317.73037 C643.634603,316.491695 647.431049,316.065602 651.105228,315.326426 C651.738826,315.198734 652.434755,315.379687 653.574545,315.445581 Z M7.6230303,277.576438 C12.198783,278.868536 16.1533898,280.211485 19.851288,282.173864 C35.6250552,290.544518 46.6072708,303.359362 53.9348844,319.460764 C54.6589865,321.051143 54.9010357,322.95721 54.9600139,324.730518 C55.0326286,326.923945 54.4680744,327.451228 52.3499734,327.288095 C50.6866522,327.159772 48.9040109,326.876848 47.438761,326.136946 C30.6930469,317.681313 17.4836377,305.698176 10.0970459,288.038816 C9.26589667,286.052207 8.55304472,283.999388 7.99837703,281.919949 C7.66939466,280.687917 7.75837331,279.344285 7.6230303,277.576438 Z M654.302135,277.97756 C654.627088,281.996461 653.865896,285.029047 652.559577,287.97299 C647.377789,299.652964 639.726151,309.442472 629.457766,317.054451 C624.992655,320.364214 620.11596,323.143488 615.312542,325.972197 C612.912888,327.385699 610.230055,327.937667 607.033939,326.363586 C607.310954,324.580855 607.229117,322.568677 607.944425,320.893681 C615.993951,302.046644 628.600013,287.557395 648.147199,279.864616 C650.012341,279.13059 651.988769,278.678174 654.302135,277.97756 Z M613.236551,294.824684 C610.943592,292.224963 611.311446,289.861425 611.860503,287.528561 C614.047533,278.233229 618.199859,269.847867 623.758886,262.131521 C628.901694,254.993535 634.733887,248.550807 642.292612,243.864969 C645.171753,242.080132 648.176918,240.583282 651.765882,239.469846 C652.13578,241.79419 651.964114,243.763748 651.555728,245.740463 C648.243677,261.775031 640.185965,274.988349 627.779738,285.57025 C625.197265,287.772583 622.476505,289.846771 619.639259,291.704542 C617.693718,292.978501 615.436183,293.775662 613.236551,294.824684 Z M10.645902,239.469846 C13.9655123,240.170253 16.7394989,241.695432 19.4330453,243.34156 C26.1174492,247.427155 31.8078185,252.643309 36.5031262,258.892308 C42.5594125,266.9528 47.5966763,275.583525 50.1135967,285.434667 C50.7704674,288.005674 50.6968733,290.762203 50.9539394,293.386509 C48.1347694,294.618543 46.0258688,293.897636 44.0881173,292.608886 C29.3350545,282.799086 18.157299,270.119323 12.7660986,252.975747 C11.6183719,249.326454 11.1709878,245.454398 10.4658531,241.672541 C10.3481024,241.040808 10.564435,240.346551 10.645902,239.469846 Z M16.8081073,201.764376 C21.3446336,203.522023 24.5102485,205.879443 27.390599,208.647071 C38.7433733,219.556029 45.5654359,232.947075 48.8712888,248.197893 C49.4671291,250.945369 49.6059988,253.810683 49.7417902,256.631936 C49.8238807,258.331518 49.3272332,259.980892 47.598202,261.531557 C45.2856442,259.988065 42.6806389,258.717135 40.6595024,256.82389 C28.8148692,245.728101 20.621211,232.479826 17.525373,216.374435 C17.033172,213.813106 16.6329809,211.213865 16.4787191,208.614965 C16.3538731,206.513712 16.6634227,204.38616 16.8081073,201.764376 Z M645.419242,202.252241 C645.419242,205.267672 645.748273,208.324666 645.36366,211.291038 C643.431676,226.196824 637.495739,239.440734 627.78847,250.938618 C625.53912,253.602458 622.738412,255.867353 619.944222,257.995631 C618.292206,259.254133 616.155392,259.885428 614.382262,260.729313 C612.240302,258.882442 612.063263,256.82162 612.362445,254.783964 C615.088358,236.232474 622.260819,219.890006 636.749158,207.311119 C639.127856,205.245868 641.878129,203.602729 644.45651,201.764376 C644.777306,201.926884 645.098446,202.089733 645.419242,202.252241 Z M635.310467,160.047686 C636.882307,165.190009 637.331846,169.665424 637.042587,174.215624 C636.012808,190.399991 630.149191,204.743107 620.035759,217.383612 C618.57639,219.207448 616.633087,220.745808 614.663643,222.041036 C613.067383,223.091082 612.12084,222.711699 611.399238,220.966062 C610.761559,219.423263 610.199893,217.686845 610.246326,216.053554 C610.5717,204.59593 612.284215,193.400562 617.223988,182.884735 C620.552368,175.798717 624.95868,169.459513 630.56468,163.968541 C631.848979,162.710534 633.341712,161.661854 635.310467,160.047686 Z M50.563225,223.023843 C46.7160008,222.557354 44.5124312,220.458667 42.5556504,218.034291 C35.9549095,209.85587 31.0933764,200.757798 28.1642203,190.675487 C26.2167199,183.972058 24.9855256,177.147651 25.3357732,170.131179 C25.4880399,167.082427 25.6788028,164.015219 27.1884078,160.84993 C29.3194531,161.729595 30.8524308,163.196044 32.3214772,164.717516 C41.8596235,174.596144 48.054091,186.247431 50.3676501,199.744509 C51.3049663,205.212169 51.5349129,210.821314 51.7504235,216.378854 C51.8349779,218.551018 50.9959647,220.758381 50.563225,223.023843 Z M43.82381,124.347826 C48.3350995,128.293906 51.2947331,132.577117 53.6115427,137.285333 C60.5968744,151.478022 62.7435746,166.480716 60.5778981,182.124506 C60.3495041,183.775288 59.7378555,185.443508 58.9710075,186.928801 C58.041505,188.729685 56.9510423,189.002194 55.3932869,187.78052 C53.9961527,186.684672 52.6573031,185.346745 51.724412,183.842988 C45.6421514,174.040531 42.0512151,163.342931 40.6557753,151.86268 C39.7391496,144.320303 39.8967211,136.863064 41.9529447,129.516948 C42.4026166,127.909932 43.0844099,126.368906 43.82381,124.347826 Z M618.280932,124.748948 C620.294837,127.626739 620.976303,130.714165 621.489201,133.832028 C623.126227,143.783062 622.076447,153.584307 619.672644,163.290139 C618.103456,169.625724 615.976145,175.766037 612.29986,181.213491 C610.851274,183.360463 609.058699,185.336785 607.150663,187.096974 C605.330337,188.776454 603.826247,188.388303 602.975185,186.022462 C602.173803,183.793756 601.596492,181.411157 601.388524,179.055575 C600.112617,164.58865 602.009346,150.590926 608.673597,137.55657 C610.721764,133.550576 613.758725,130.043536 616.398935,126.348063 C616.827549,125.748224 617.549786,125.356995 618.280932,124.748948 Z M64.7191358,91.0546985 C66.239303,93.0532842 67.4247513,94.4001349 68.3731787,95.8952314 C72.535664,102.458353 74.6165626,109.757922 75.7359616,117.346126 C77.2268881,127.453484 76.9062736,137.510288 74.3967421,147.445148 C73.5381005,150.844895 72.6987233,154.320474 69.0319522,156.437588 C67.2782043,154.969134 65.7989739,153.292317 64.8677469,151.20902 C60.2140195,140.797655 57.5496849,129.927207 57.7894578,118.495543 C57.9332527,111.6554 59.0929005,104.923879 61.3791714,98.4454691 C62.1948121,96.1346791 63.3926446,93.9564222 64.7191358,91.0546985 Z M597.315911,91.4558205 C599.406731,94.5421736 600.701376,97.2848371 601.59138,100.222818 C606.326684,115.858467 605.368378,131.28475 599.783085,146.517429 C598.921368,148.867745 597.950298,151.193389 596.823649,153.428228 C596.057487,154.94759 594.971889,156.565295 592.998012,156.429601 C591.011371,156.292879 590.066518,154.542221 589.675675,152.90704 C588.379994,147.486818 586.865263,142.062828 586.243295,136.550431 C584.741327,123.234943 586.766948,110.39507 592.96317,98.3700464 C594.135699,96.0947733 595.691136,94.014132 597.315911,91.4558205 Z M572.53304,59.3660589 C573.817708,61.0679034 574.756753,62.1755073 575.547869,63.3811233 C580.621439,71.1148172 582.792321,79.8337715 583.718413,88.8824024 C584.678932,98.2634516 584.132207,107.589326 581.662058,116.737683 C580.915594,119.502238 580.064148,122.239034 577.292686,123.946704 C575.130667,123.432998 573.891332,121.842188 573.02557,119.935752 C567.450608,107.661636 564.606204,94.8292625 566.106291,81.3286256 C566.669036,76.2628453 568.052551,71.2659476 569.363124,66.3183985 C569.955864,64.0812579 571.28382,62.0411692 572.53304,59.3660589 Z M543.428586,30.0841515 C546.525872,32.5372146 548.814625,35.3570781 550.623215,38.4984034 C559.264104,53.5041545 562.088031,69.6389419 559.656316,86.7503866 C559.305193,89.2211762 558.22296,91.2488053 555.807205,93.0603086 C554.220359,91.3193701 552.332648,89.7959211 551.134958,87.8453336 C543.42519,75.288214 539.066033,61.7172798 539.689158,46.8219779 C539.935352,40.9391944 540.867832,33.7429517 543.428586,30.0841515 Z M106.607038,93.4614306 C104.201151,92.0184254 103.123041,90.359209 102.860306,88.4085178 C100.002541,67.189363 103.170155,47.5031874 117.92461,30.8354173 C118.141607,30.590127 118.459022,30.4331001 118.934972,30.0841515 C119.357619,30.7786276 119.926421,31.3653403 120.095961,32.0498953 C120.91443,35.3584072 121.940268,38.6576821 122.321303,42.024352 C124.186587,58.5111478 120.183998,73.7030705 111.504785,87.7273838 C110.216556,89.8094438 108.300719,91.5073183 106.607038,93.4614306 Z M89.2484572,59.7671809 C90.4024732,61.7555616 91.2755172,63.0417996 91.9325853,64.4317554 C94.1390611,69.0973535 95.2805518,74.0768345 95.7768227,79.1866453 C96.9311771,91.0725761 96.3353813,102.794401 91.9837018,114.070648 C90.5483755,117.790162 88.6949764,121.279722 85.3155275,123.946704 C83.1188688,122.993114 82.034588,121.166451 81.5349319,119.057976 C80.5941838,115.08838 79.675101,111.097289 79.0674569,107.06628 C76.999436,93.3458397 78.7644812,80.1197649 84.6581209,67.542609 C85.8331252,65.0349567 87.4712252,62.7477048 89.2484572,59.7671809 Z M510.30052,7.62131837 C514.057928,9.54364934 516.642657,12.4062806 518.988696,15.4693542 C526.097636,24.750587 530.654195,35.2508924 532.807511,46.6997072 C533.63867,51.1193582 533.528007,55.7380833 533.610408,60.2706113 C533.651949,62.5452556 532.938944,64.7425962 531.361071,66.5862553 C528.462743,66.5041628 526.818132,64.549679 525.255582,62.6441086 C520.985042,57.4356862 517.433636,51.7569427 514.665038,45.5983005 C510.938616,37.3093599 508.827862,28.6250075 508.392363,19.5380601 C508.148226,14.443883 508.677361,11.0760413 510.30052,7.62131837 Z M130.987412,66.5862553 C128.631843,65.0297437 128.358517,62.9093972 128.390133,60.9315435 C128.691336,42.0720502 133.548995,24.8849717 147.067084,10.9905663 C148.385781,9.6348399 149.92273,8.49217087 151.856751,6.81907433 C152.363969,8.5981882 152.822572,9.81721697 153.052723,11.0781754 C154.383999,18.3684857 153.362425,25.5350522 151.70581,32.6324177 C149.759551,40.9696064 146.704348,48.8857938 141.892243,55.9974768 C140.129901,58.6022304 138.001765,61.0010854 135.782519,63.2359715 C134.404329,64.6237417 132.54136,65.5274456 130.987412,66.5862553 Z M189.444753,37.7054698 C190.252553,37.1704231 191.060352,36.6357024 191.86781,36.1009818 C191.972075,36.2904163 192.076341,36.480177 192.180606,36.6699376 C191.245979,36.9930524 190.31101,37.3164932 189.37228,37.6366735 C189.368178,37.633413 189.444753,37.7054698 189.444753,37.7054698 Z" transform="translate(118 -119)"/>
    </g>
  </g>
</svg>
